<?xml version="1.0" encoding="UTF-8"?>
<svg width="32px" height="32px" viewBox="0 0 32 32" version="1.1" xmlns="http://www.w3.org/2000/svg" xmlns:xlink="http://www.w3.org/1999/xlink">
    <!-- Generator: Sketch 63.1 (92452) - https://sketch.com -->
    <title>Avatar Cool Guy 2</title>
    <desc>Created with Sketch.</desc>
    <defs>
        <circle id="path-1" cx="16" cy="16" r="16"></circle>
        <rect id="path-3" x="0" y="-1.02417115e-13" width="31.9263233" height="31.9263233" rx="2"></rect>
        <linearGradient x1="50%" y1="0%" x2="50%" y2="100%" id="linearGradient-5">
            <stop stop-color="#F3AC84" offset="0%"></stop>
            <stop stop-color="#EB965E" offset="100%"></stop>
        </linearGradient>
        <path d="M9.25863376,14.8759429 L9.25863376,14.9218378 C9.271249,15.8921834 10.0871439,16.6218326 11.7063185,17.1107855 C9.75526545,18.5297332 7.80421236,19.6648913 5.85315927,19.6648913 C3.90210618,19.6648913 1.95105309,18.5297332 -1.31093906e-11,17.1107855 C1.60819838,16.6213338 2.42392277,15.8906944 2.44717317,14.9188672 C2.44669701,14.7456169 2.44588846,14.4996118 2.44474753,14.0376016 C2.44456637,13.9642465 2.44437684,13.8890892 2.44417893,13.8122303 C2.3278749,13.8286667 2.33734031,13.8181809 2.44411803,13.7886263 C2.44097608,12.5734399 2.43575832,10.9392586 2.42846474,9.27862752 C0.903230568,7.30167632 1.46350949,4.98390542 1.94151609,5.04170786 C2.5279603,5.11262303 7.6045632,0.295195661 8.57832404,0.0487056566 C9.55208485,-0.197784347 12.0255818,0.598609235 12.4512661,2.82015856 C12.8769504,5.04170786 13.0548831,10.6413265 11.4402658,12.8769504 C10.9807996,13.5131344 10.2572291,13.7619655 9.26955439,13.6234438 C9.26821883,14.0883786 9.26542739,14.3493152 9.25863376,14.8759429 L9.25863376,14.8759429 Z" id="path-6"></path>
        <linearGradient x1="81.0579221%" y1="36.1352868%" x2="46.4183066%" y2="76.1870914%" id="linearGradient-8">
            <stop stop-color="#E07A3F" offset="0%"></stop>
            <stop stop-color="#EB9154" offset="100%"></stop>
        </linearGradient>
        <linearGradient x1="50%" y1="0%" x2="50%" y2="100%" id="linearGradient-9">
            <stop stop-color="#1D0024" offset="0%"></stop>
            <stop stop-color="#100014" offset="100%"></stop>
        </linearGradient>
        <linearGradient x1="50%" y1="0%" x2="50%" y2="100%" id="linearGradient-10">
            <stop stop-color="#FF6969" offset="0%"></stop>
            <stop stop-color="#9B2300" offset="100%"></stop>
        </linearGradient>
        <path d="M23.9447424,3.97033972 C24.6201778,5.34365408 25.1522832,7.61397042 25.5410586,10.7812887 L0,10.7812887 C0.388961351,7.61361552 0.921066738,5.34329917 1.59631616,3.97033972 C2.27156559,2.59738029 4.58087722,1.27417347 8.52425105,0.000719289755 C9.66437757,2.3417807 15.9214195,2.3415223 17.0136231,0 C20.958934,1.2735788 23.2693071,2.59702537 23.9447424,3.97033972 Z" id="path-11"></path>
        <linearGradient x1="50%" y1="0%" x2="50%" y2="100%" id="linearGradient-13">
            <stop stop-color="#F7B186" offset="0%"></stop>
            <stop stop-color="#FFC299" offset="100%"></stop>
        </linearGradient>
    </defs>
    <g id="Unified-View-Final" stroke="none" stroke-width="1" fill="none" fill-rule="evenodd">
        <g id="Avatar-Cool-Guy-2">
            <mask id="mask-2" fill="white">
                <use xlink:href="#path-1"></use>
            </mask>
            <use id="Mask" fill="#D8D8D8" xlink:href="#path-1"></use>
            <g id="Group-3-Copy-5" mask="url(#mask-2)">
                <g id="Rectangle" fill="#FFE7DD" fill-rule="nonzero">
                    <rect id="path-1" x="0" y="-1.02417115e-13" width="31.9263233" height="31.9263233" rx="2"></rect>
                </g>
                <g id="User-07a-Clipped">
                    <mask id="mask-4" fill="white">
                        <use xlink:href="#path-3"></use>
                    </mask>
                    <g id="path-1"></g>
                    <g id="User-07a" mask="url(#mask-4)">
                        <g transform="translate(2.909091, 3.232323)" id="Group">
                            <g transform="translate(0.231170, 0.231170)">
                                <g id="Group-10" transform="translate(3.948388, 0.048402)">
                                    <g id="Group-11">
                                        <g id="Group-2" transform="translate(7.663818, 10.828283) scale(-1, 1) translate(-7.663818, -10.828283) translate(0.067858, 0.000000)">
                                            <g id="Group">
                                                <g id="Group-14">
                                                    <g id="Path-48" transform="translate(0.532105, 1.702737)">
                                                        <g id="Combined-Shape" fill="url(#linearGradient-5)" fill-rule="nonzero">
                                                            <path d="M9.25863376,14.8759429 L9.25863376,14.9218378 C9.271249,15.8921834 10.0871439,16.6218326 11.7063185,17.1107855 C9.75526545,18.5297332 7.80421236,19.6648913 5.85315927,19.6648913 C3.90210618,19.6648913 1.95105309,18.5297332 -1.31093906e-11,17.1107855 C1.60819838,16.6213338 2.42392277,15.8906944 2.44717317,14.9188672 C2.44669701,14.7456169 2.44588846,14.4996118 2.44474753,14.0376016 C2.44456637,13.9642465 2.44437684,13.8890892 2.44417893,13.8122303 C2.3278749,13.8286667 2.33734031,13.8181809 2.44411803,13.7886263 C2.44097608,12.5734399 2.43575832,10.9392586 2.42846474,9.27862752 C0.903230568,7.30167632 1.46350949,4.98390542 1.94151609,5.04170786 C2.5279603,5.11262303 7.6045632,0.295195661 8.57832404,0.0487056566 C9.55208485,-0.197784347 12.0255818,0.598609235 12.4512661,2.82015856 C12.8769504,5.04170786 13.0548831,10.6413265 11.4402658,12.8769504 C10.9807996,13.5131344 10.2572291,13.7619655 9.26955439,13.6234438 C9.26821883,14.0883786 9.26542739,14.3493152 9.25863376,14.8759429 L9.25863376,14.8759429 Z" id="path-5"></path>
                                                        </g>
                                                        <g id="Clipped">
                                                            <mask id="mask-7" fill="white">
                                                                <use xlink:href="#path-6"></use>
                                                            </mask>
                                                            <g id="path-5"></g>
                                                            <path d="M9.25863376,13.6218979 C7.69779129,13.4445295 6.42073836,13.0188452 5.42747494,12.344845 C6.50160129,13.7720622 7.77865422,14.6234308 9.25863376,14.8989509 L9.25863376,13.6218979 Z" id="Path" fill="url(#linearGradient-8)" fill-rule="nonzero" opacity="0.600000024" style="mix-blend-mode: multiply;" mask="url(#mask-7)"></path>
                                                        </g>
                                                    </g>
                                                    <path d="M2.18163209,11.0145815 C1.44840993,9.25113144 -1.48989509,5.65984 1.0427967,3.4249974 C1.89416532,-0.725424637 6.5981068,-0.266052694 9.7375286,0.691737005 C11.8475358,1.33546802 13.4408522,2.6073164 13.7815295,1.6495267 C15.9099511,3.4249974 14.8440759,5.16142225 13.4408522,5.65984 C12.1673842,6.11216924 10.0138976,6.56441917 6.35262061,6.13873487 C5.69856921,6.06269052 5.83554114,8.06580684 5.48600973,8.28240155 C4.96171265,8.60729361 4.55469227,6.56441917 3.11719646,7.17780577 C1.67970066,7.79119237 2.53269179,10.6353939 4.0757974,10.6353939 C4.6079028,10.6353939 4.87395549,12.0983152 3.43727095,12.7900522 C2.39447424,13.3026347 2.65805511,12.1604119 2.18163209,11.0145815 Z" id="Path-22" fill="url(#linearGradient-9)" fill-rule="nonzero"></path>
                                                </g>
                                            </g>
                                        </g>
                                    </g>
                                </g>
                                <g id="Group-21" transform="translate(0.052371, 18.139985)">
                                    <g id="Combined-Shape" fill="url(#linearGradient-10)" fill-rule="nonzero">
                                        <path d="M23.9447424,3.97033972 C24.6201778,5.34365408 25.1522832,7.61397042 25.5410586,10.7812887 L0,10.7812887 C0.388961351,7.61361552 0.921066738,5.34329917 1.59631616,3.97033972 C2.27156559,2.59738029 4.58087722,1.27417347 8.52425105,0.000719289755 C9.66437757,2.3417807 15.9214195,2.3415223 17.0136231,0 C20.958934,1.2735788 23.2693071,2.59702537 23.9447424,3.97033972 Z" id="path-10"></path>
                                    </g>
                                    <g id="Combined-Shape-Clipped">
                                        <mask id="mask-12" fill="white">
                                            <use xlink:href="#path-11"></use>
                                        </mask>
                                        <g id="path-10"></g>
                                        <path d="M26.6052694,7.76873865 L26.6052694,8.62010728 L-1.06421078,8.62010728 L-1.06421078,7.76873865 L26.6052694,7.76873865 Z M26.6052694,5.64031712 L26.6052694,6.49168572 L-1.06421078,6.49168572 L-1.06421078,5.64031712 L26.6052694,5.64031712 Z M26.6052694,3.51189556 L26.6052694,4.36326419 L-1.06421078,4.36326419 L-1.06421078,3.51189556 L26.6052694,3.51189556 Z" id="Combined-Shape" fill="url(#linearGradient-13)" fill-rule="nonzero" opacity="0.5" style="mix-blend-mode: overlay;" mask="url(#mask-12)"></path>
                                    </g>
                                </g>
                            </g>
                        </g>
                    </g>
                </g>
            </g>
        </g>
    </g>
</svg>